<svg width="1587" height="1110" viewBox="0 0 1587 1110" fill="none" xmlns="http://www.w3.org/2000/svg">
<path d="M1499.5 1066.5H1399C1383.4 1066.5 1385.17 1084.83 1388 1094C1388 1100.4 1393 1102.67 1395.5 1103C1434.17 1103.5 1515.5 1104.2 1531.5 1103C1551.5 1101.5 1557.5 1092.5 1565.5 1084C1571.9 1077.2 1574.5 1063.5 1575 1057.5V1030C1575 1024.5 1573.5 1017.5 1569.5 1007C1565.5 996.5 1555 991 1545.5 986.5C1537.9 982.9 1526 981.333 1521 981H1458.5C1450.5 981 1449.5 980 1444 978C1438.5 976 1436.5 971 1435.5 969.5C1434.5 968 1434 964.5 1433.5 962C1433 959.5 1434 952.5 1435.5 949C1437 945.5 1440.5 942.5 1444 940.5C1446.8 938.9 1452.17 937.833 1454.5 937.5H1559C1571 937.5 1574.33 931.5 1574.5 928.5C1574.83 923.167 1575.4 911.2 1575 906C1574.6 900.8 1570.5 899.167 1568.5 899C1529.33 898.833 1448.5 898.6 1438.5 899C1426 899.5 1417.5 904.5 1406 912C1394.5 919.5 1391.5 929.5 1389.5 937.5C1387.5 945.5 1388 968.5 1389.5 978.5C1391 988.5 1396 996.5 1405.5 1006.5C1413.1 1014.5 1432.67 1017.83 1441.5 1018.5C1459 1019 1497 1020 1509 1020C1521 1020 1526.67 1028 1528 1032C1528.33 1033.33 1529 1037.6 1529 1044C1529 1052 1527 1055 1523 1060.2C1519.8 1064.37 1506 1066.14 1499.5 1066.5Z" fill="#CCA52C"/>
<path fill-rule="evenodd" clip-rule="evenodd" d="M1109 1060.5V941.5C1110.17 934.167 1114.6 918.1 1123 912.5C1133.5 905.5 1141.5 900 1164 899C1186.5 898 1215.5 897 1256.5 899C1297.5 901 1305.5 920.5 1310.5 934.5C1314.5 945.7 1314.17 965.5 1313.5 974C1313 976.333 1309.9 981.8 1301.5 985C1293.1 988.2 1203.33 1018 1159.5 1032.5C1157.17 1033.33 1152.7 1036.3 1153.5 1041.5C1154.5 1048 1156 1059.5 1166 1062.5C1176 1065.5 1179.5 1066.5 1189.5 1066.5H1305.5C1307.67 1066.83 1312 1069 1312 1075C1312 1081 1311.67 1092.17 1311.5 1097C1311.5 1099.17 1309.9 1103.5 1303.5 1103.5H1168C1150.33 1103.33 1113.8 1094.5 1109 1060.5ZM1159 995L1259 962C1266 959.69 1266.5 951.5 1264.5 948C1262.5 944.5 1264 939 1234 936.5C1204 934 1186 936.5 1170.5 939C1158.1 941 1153.33 954.167 1152.5 960.5V989C1152.5 995 1156.83 995.5 1159 995Z" fill="#CCA52C"/>
<path d="M823 1097V953C823.18 947.507 824.987 934.017 830.771 924C838 911.478 843.701 909.041 848.5 906.271C853.299 903.5 864.5 899 875 899H974C978.667 899 990.1 900.3 998.5 905.5C1009 912 1013.5 917 1017.5 924.5C1021.5 932 1025 943 1025 950V1094.72C1025 1097.48 1023.3 1103.1 1016.5 1103.5C1009.7 1103.9 996 1103.67 990 1103.5C987.167 1103.33 981.5 1101.6 981.5 1096V973.401C980.833 968.267 978.6 957.2 975 954C970.5 950 966 946.5 961.5 946C957 945.5 955 944.5 946 944.5H898C892.167 944.833 879.6 946.8 876 952C871.5 958.5 868 964.5 868 972V1093.5C868.167 1096.83 866.7 1103.5 859.5 1103.5H829.5C827.333 1102.83 823 1100.6 823 1097Z" fill="#CCA52C"/>
<path d="M699.5 864V839C699.667 837.167 701.2 833.5 706 833.5H736.5C738.5 833.5 743 836.841 743 839V864C743 865 741 870.5 736.5 870.5H706C703.833 870 699.5 868 699.5 864Z" fill="#CCA52C"/>
<path d="M697 1092.5V906.5C697.167 904 699.2 899 706 899H734.5C737 899.5 742 901.7 742 906.5V1092.5C742 1096.17 740.2 1103.5 733 1103.5H704C701.667 1103.67 697 1101.7 697 1092.5Z" fill="#CCA52C"/>
<path fill-rule="evenodd" clip-rule="evenodd" d="M476.501 966H572.001C573.834 965.5 577.501 963.3 577.501 958.5C577.501 952.5 576.001 947.5 572.001 943.5C568.001 939.5 557.501 936 552.001 935.5C547.601 935.1 465.834 935.333 425.501 935.5C423.501 935.333 419.401 933.7 419.001 928.5C418.601 923.3 418.834 910.667 419.001 905C419.168 903 420.701 899 425.501 899H558.501C567.668 899 588.301 900.4 597.501 906C609.001 913 622.501 922.5 623.001 943.5C623.401 960.3 623.168 1027.83 623.001 1059.5C620.668 1073.33 608.501 1101.3 578.501 1102.5C541.001 1104 475.501 1104.5 465.001 1102.5C454.501 1100.5 445.001 1099 434.501 1090.5C424.001 1082 420.001 1070 419.001 1057.5L418.954 1056.91C417.955 1044.44 416.54 1026.77 419.001 1012L419.067 1011.6C421.52 996.884 422.599 990.407 433.501 980C444.501 969.5 457.501 967 476.501 966ZM570.001 1000.5H493.001C492.168 1000.33 488.201 1000.5 479.001 1002.5C467.501 1005 466.001 1016 465.001 1018.5C464.001 1021 463.001 1038.5 464.001 1046.5C465.001 1054.5 469.501 1062 484.501 1065C499.501 1068 547.001 1066.5 557.501 1065C568.001 1063.5 573.501 1060 576.501 1054C579.501 1048 580.001 1023 579.001 1012.5C578.201 1004.1 572.668 1001 570.001 1000.5Z" fill="#CCA52C"/>
<path d="M206.5 1091C211.3 1081 287 908.5 287.5 908C288 907.5 290 909.5 290 909.5C290 909.5 291.097 911.52 291.5 913V1098C291.667 1100.5 293.2 1105.5 298 1105.5H332C334.5 1105.33 339.5 1103.8 339.5 1099V870C339.333 862.167 335.7 844.8 322.5 838C306 829.5 289 831.5 280 835C271 838.5 263.5 846.5 259.5 854C256.3 860 204.833 977.5 179.5 1035.5C178.833 1037.17 177.5 1040 175.5 1040C173.438 1040 171.8 1037.1 171 1035.5C170.2 1033.9 118.667 914.5 93.0001 855C90.0001 849.167 80.8001 836.9 68.0001 834.5C52.0001 831.5 36.5001 833 29.0001 838.5C21.5001 844 12.0001 855 12.0001 869.5C12.0001 881.1 11.5001 1026 11.5 1097C11.5004 1100 13.5 1104 20.4999 1105C28.8249 1106.19 42.9999 1105.67 49 1105.5C53 1105.39 60.0001 1104.5 60.0001 1097C60.0001 1089.79 60.1668 970 60.0001 911C60.1668 910.5 60.6001 909.3 61.0001 908.5C61.4002 907.7 62.5 906.833 63 906.5L146.5 1091C148 1095 153.4 1103.9 163 1107.5C172.6 1111.1 183 1109 187 1107.5C191.5 1106.17 201.7 1101 206.5 1091Z" fill="#CCA52C"/>
<path d="M858.5 684.466C866.5 675.666 889.5 645.466 900 631.466L975.5 466.072C916.517 490.941 763.095 525.757 621.275 466.072L492 752.466C500.5 759.133 532.8 774.066 594 780.466C669.436 788.355 709.866 773.879 756.522 757.174L758.5 756.466C806 739.466 848.5 695.466 858.5 684.466Z" fill="#28A9DE"/>
<path d="M924 20.9658C836 50.9658 772.667 137.132 752 176.466L621.275 466.072C763.095 525.757 916.517 490.941 975.5 466.072L1039 326.966L1179.5 631.466C1188.17 644.133 1208.4 672.466 1220 684.466C1234.5 699.466 1267.5 732.466 1319 756.466C1370.5 780.466 1421.5 785.466 1488.5 780.466C1542.1 776.466 1576.5 759.799 1587 751.966C1511.67 585.466 1353.8 237.266 1325 176.466C1289 100.466 1204 37.4658 1155 20.9658C1106 4.46581 1034 -16.5342 924 20.9658Z" fill="#263576"/>
<path d="M256 761.131C332.4 734.731 389.833 661.131 409 627.631L483.009 465.38C328.216 525.58 183.173 490.464 130 465.38L0 751.63C20 767.23 65 776.464 85 779.131C110.167 784.131 179.6 787.531 256 761.131Z" fill="#28A9DE"/>
<path d="M382.5 46.1305C329.7 74.9305 278.833 146.797 260 179.131L130 465.38C183.173 490.464 328.216 525.58 483.009 465.38L682 29.1306C660.667 21.6306 607.2 5.53051 564 1.13051C510 -4.36949 448.5 10.1305 382.5 46.1305Z" fill="#263576"/>
</svg>
